<svg className='fo-icon' xmlns="http://www.w3.org/2000/svg" viewBox="0 0 107 107"><path d="M53.5,0C23.95,0,0,23.95,0,53.5s23.95,53.5,53.5,53.5,53.5-23.95,53.5-53.5S83.05,0,53.5,0Zm-1.59,27.13l-21.73,9.29c-2.5,1.07-2.52,3.35-2.48,4.01,.04,.67,.42,2.94,3.08,3.61l19.84,5.16c.18,.04,.28,.24,.24,.4l-1.57,6.01c-.04,.18-.22,.28-.4,.24l-19.84-5.16c-.48-.12-.93-.28-1.37-.44v24.51c0,.18-.14,.34-.34,.34h-6.21c-.18,0-.34-.14-.34-.34V40.11c0-4.39,2.54-8.26,6.67-10.02l21.73-9.29c.16-.08,.36,0,.44,.18l2.44,5.72c.08,.16,0,.36-.16,.44Zm20.9,49.49c-10.5,0-19.05-8.55-19.05-19.05s8.55-19.05,19.05-19.05,19.05,8.53,19.05,19.05c-.02,10.52-8.55,19.05-19.05,19.05Zm0-31.21c-6.71,0-12.16,5.46-12.16,12.16s5.46,12.16,12.16,12.16,12.16-5.46,12.16-12.16-5.46-12.16-12.16-12.16Z" style="fill:blue;"/></svg>